REM DIRINDEX 1\2,1\3
REM DIRNAME cjc102,folder01,folder02
TITLE ""
FILE "CD1Track06.mp3" MP3
  TRACK 01 AUDIO
    TITLE "0:"
    INDEX 01 00:00:00
  TRACK 02 AUDIO
    TITLE "2:cjc102_0247"
    INDEX 01 00:00:25
  TRACK 03 AUDIO
    TITLE "0:"
    INDEX 01 00:01:13
  TRACK 04 AUDIO
    TITLE "3:cjc102_0248"
    INDEX 01 00:01:19
  TRACK 05 AUDIO
    TITLE "0:"
    INDEX 01 00:02:51
  TRACK 06 AUDIO
    TITLE "3:cjc102_0249"
    INDEX 01 00:02:65
  TRACK 07 AUDIO
    TITLE "0:"
    INDEX 01 00:07:43
  TRACK 08 AUDIO
    TITLE "2:cjc102_0250"
    INDEX 01 00:07:49
  TRACK 09 AUDIO
    TITLE "0:"
    INDEX 01 00:08:48
  TRACK 10 AUDIO
    TITLE "3:cjc102_0251"
    INDEX 01 00:10:35
  TRACK 11 AUDIO
    TITLE "0:"
    INDEX 01 00:11:27
  TRACK 12 AUDIO
    TITLE "2:cjc102_0252"
    INDEX 01 00:11:66
  TRACK 13 AUDIO
    TITLE "0:"
    INDEX 01 00:13:10
  TRACK 14 AUDIO
    TITLE "3:cjc102_0253"
    INDEX 01 00:14:00
  TRACK 15 AUDIO
    TITLE "0:"
    INDEX 01 00:14:58
  TRACK 16 AUDIO
    TITLE "2:cjc102_0254"
    INDEX 01 00:15:05
  TRACK 17 AUDIO
    TITLE "0:"
    INDEX 01 00:16:30
  TRACK 18 AUDIO
    TITLE "3:cjc102_0255"
    INDEX 01 00:17:23
  TRACK 19 AUDIO
    TITLE "0:"
    INDEX 01 00:18:25
  TRACK 20 AUDIO
    TITLE "2:cjc102_0256"
    INDEX 01 00:18:48
  TRACK 21 AUDIO
    TITLE "0:"
    INDEX 01 00:19:63
  TRACK 22 AUDIO
    TITLE "3:cjc102_0257"
    INDEX 01 00:20:57
  TRACK 23 AUDIO
    TITLE "0:"
    INDEX 01 00:21:51
  TRACK 24 AUDIO
    TITLE "2:cjc102_0258"
    INDEX 01 00:21:74
  TRACK 25 AUDIO
    TITLE "0:"
    INDEX 01 00:23:08
  TRACK 26 AUDIO
    TITLE "3:cjc102_0259"
    INDEX 01 00:24:08
  TRACK 27 AUDIO
    TITLE "0:"
    INDEX 01 00:24:67
  TRACK 28 AUDIO
    TITLE "2:cjc102_0260"
    INDEX 01 00:25:25
  TRACK 29 AUDIO
    TITLE "0:"
    INDEX 01 00:26:34
  TRACK 30 AUDIO
    TITLE "3:cjc102_0261"
    INDEX 01 00:27:34
  TRACK 31 AUDIO
    TITLE "0:"
    INDEX 01 00:28:31
  TRACK 32 AUDIO
    TITLE "2:cjc102_0262"
    INDEX 01 00:28:57
  TRACK 33 AUDIO
    TITLE "0:"
    INDEX 01 00:30:01
  TRACK 34 AUDIO
    TITLE "3:cjc102_0263"
    INDEX 01 00:31:06
  TRACK 35 AUDIO
    TITLE "0:"
    INDEX 01 00:32:00
  TRACK 36 AUDIO
    TITLE "2:cjc102_0264"
    INDEX 01 00:32:39
  TRACK 37 AUDIO
    TITLE "0:"
    INDEX 01 00:33:42
  TRACK 38 AUDIO
    TITLE "3:cjc102_0265"
    INDEX 01 00:34:43
  TRACK 39 AUDIO
    TITLE "0:"
    INDEX 01 00:35:45
  TRACK 40 AUDIO
    TITLE "2:cjc102_0266"
    INDEX 01 00:36:13
  TRACK 41 AUDIO
    TITLE "0:"
    INDEX 01 00:37:22
  TRACK 42 AUDIO
    TITLE "3:cjc102_0267"
    INDEX 01 00:38:20
  TRACK 43 AUDIO
    TITLE "0:"
    INDEX 01 00:39:15
  TRACK 44 AUDIO
    TITLE "2:cjc102_0268"
    INDEX 01 00:39:64
  TRACK 45 AUDIO
    TITLE "0:"
    INDEX 01 00:40:73
  TRACK 46 AUDIO
    TITLE "3:cjc102_0269"
    INDEX 01 00:42:00
  TRACK 47 AUDIO
    TITLE "0:"
    INDEX 01 00:42:72
  TRACK 48 AUDIO
    TITLE "2:cjc102_0270"
    INDEX 01 00:43:50
  TRACK 49 AUDIO
    TITLE "0:"
    INDEX 01 00:44:67
  TRACK 50 AUDIO
    TITLE "3:cjc102_0271"
    INDEX 01 00:45:61
  TRACK 51 AUDIO
    TITLE "0:"
    INDEX 01 00:47:03
  TRACK 52 AUDIO
    TITLE "2:cjc102_0272"
    INDEX 01 00:47:50
  TRACK 53 AUDIO
    TITLE "0:"
    INDEX 01 00:48:55
  TRACK 54 AUDIO
    TITLE "3:cjc102_0273"
    INDEX 01 00:49:49
  TRACK 55 AUDIO
    TITLE "0:"
    INDEX 01 00:50:58
  TRACK 56 AUDIO
    TITLE "2:cjc102_0274"
    INDEX 01 00:51:24
  TRACK 57 AUDIO
    TITLE "0:"
    INDEX 01 00:52:36
  TRACK 58 AUDIO
    TITLE "3:cjc102_0275"
    INDEX 01 00:53:33
  TRACK 59 AUDIO
    TITLE "0:"
    INDEX 01 00:54:52
  TRACK 60 AUDIO
    TITLE "2:cjc102_0276"
    INDEX 01 00:55:18
  TRACK 61 AUDIO
    TITLE "0:"
    INDEX 01 00:56:29
  TRACK 62 AUDIO
    TITLE "3:cjc102_0277"
    INDEX 01 00:57:21
  TRACK 63 AUDIO
    TITLE "0:"
    INDEX 01 00:58:40
  TRACK 64 AUDIO
    TITLE "2:cjc102_0278"
    INDEX 01 00:58:64
  TRACK 65 AUDIO
    TITLE "0:"
    INDEX 01 00:59:73
  TRACK 66 AUDIO
    TITLE "3:cjc102_0279"
    INDEX 01 01:00:72
  TRACK 67 AUDIO
    TITLE "0:"
    INDEX 01 01:02:06
  TRACK 68 AUDIO
    TITLE "2:cjc102_0280"
    INDEX 01 01:02:38
  TRACK 69 AUDIO
    TITLE "0:"
    INDEX 01 01:03:43
  TRACK 70 AUDIO
    TITLE "3:cjc102_0281"
    INDEX 01 01:04:43
  TRACK 71 AUDIO
    TITLE "0:"
    INDEX 01 01:05:48
  TRACK 72 AUDIO
    TITLE "2:cjc102_0282"
    INDEX 01 01:06:16
  TRACK 73 AUDIO
    TITLE "0:"
    INDEX 01 01:07:15
  TRACK 74 AUDIO
    TITLE "3:cjc102_0283"
    INDEX 01 01:08:35
  TRACK 75 AUDIO
    TITLE "0:"
    INDEX 01 01:09:52
  TRACK 76 AUDIO
    TITLE "2:cjc102_0284"
    INDEX 01 01:10:12
  TRACK 77 AUDIO
    TITLE "0:"
    INDEX 01 01:11:13
  TRACK 78 AUDIO
    TITLE "2:cjc102_0285"
    INDEX 01 01:12:09
  TRACK 79 AUDIO
    TITLE "0:"
    INDEX 01 01:13:16
  TRACK 80 AUDIO
    TITLE "3:cjc102_0286"
    INDEX 01 01:14:12
  TRACK 81 AUDIO
    TITLE "0:"
    INDEX 01 01:15:25
  TRACK 82 AUDIO
    TITLE "2:cjc102_0287"
    INDEX 01 01:15:50
  TRACK 83 AUDIO
    TITLE "0:"
    INDEX 01 01:16:60
  TRACK 84 AUDIO
    TITLE "2:cjc102_0288"
    INDEX 01 01:17:26
  TRACK 85 AUDIO
    TITLE "0:"
    INDEX 01 01:18:43
  TRACK 86 AUDIO
    TITLE "3:cjc102_0289"
    INDEX 01 01:19:40
  TRACK 87 AUDIO
    TITLE "0:"
    INDEX 01 01:20:55
  TRACK 88 AUDIO
    TITLE "2:cjc102_0290"
    INDEX 01 01:21:08
  TRACK 89 AUDIO
    TITLE "0:"
    INDEX 01 01:22:15
  TRACK 90 AUDIO
    TITLE "2:cjc102_0291"
    INDEX 01 01:22:56
  TRACK 91 AUDIO
    TITLE "0:"
    INDEX 01 01:23:67
  TRACK 92 AUDIO
    TITLE "3:cjc102_0292"
    INDEX 01 01:25:09
  TRACK 93 AUDIO
    TITLE "0:"
    INDEX 01 01:26:15
  TRACK 94 AUDIO
    TITLE "2:cjc102_0293"
    INDEX 01 01:26:46
  TRACK 95 AUDIO
    TITLE "0:"
    INDEX 01 01:27:42
  TRACK 96 AUDIO
    TITLE "2:cjc102_0294"
    INDEX 01 01:28:02
  TRACK 97 AUDIO
    TITLE "0:"
    INDEX 01 01:29:09
  TRACK 98 AUDIO
    TITLE "3:cjc102_0295"
    INDEX 01 01:30:17
  TRACK 99 AUDIO
    TITLE "0:"
    INDEX 01 01:31:43
  TRACK 100 AUDIO
    TITLE "2:cjc102_0296"
    INDEX 01 01:32:00
  TRACK 101 AUDIO
    TITLE "0:"
    INDEX 01 01:33:07
  TRACK 102 AUDIO
    TITLE "2:cjc102_0297"
    INDEX 01 01:33:36
  TRACK 103 AUDIO
    TITLE "0:"
    INDEX 01 01:34:46
  TRACK 104 AUDIO
    TITLE "3:cjc102_0298"
    INDEX 01 01:35:65
  TRACK 105 AUDIO
    TITLE "0:"
    INDEX 01 01:37:03
  TRACK 106 AUDIO
    TITLE "2:cjc102_0299"
    INDEX 01 01:37:30
  TRACK 107 AUDIO
    TITLE "0:"
    INDEX 01 01:38:34
  TRACK 108 AUDIO
    TITLE "2:cjc102_0300"
    INDEX 01 01:38:67
  TRACK 109 AUDIO
    TITLE "0:"
    INDEX 01 01:39:74
  TRACK 110 AUDIO
    TITLE "3:cjc102_0301"
    INDEX 01 01:41:20
  TRACK 111 AUDIO
    TITLE "0:"
    INDEX 01 01:42:45
  TRACK 112 AUDIO
    TITLE "2:cjc102_0302"
    INDEX 01 01:43:23
  TRACK 113 AUDIO
    TITLE "0:"
    INDEX 01 01:45:63
  TRACK 114 AUDIO
    TITLE "3:cjc102_0303"
    INDEX 01 01:47:17
  TRACK 115 AUDIO
    TITLE "0:"
    INDEX 01 01:48:42
  TRACK 116 AUDIO
    TITLE "2:cjc102_0304"
    INDEX 01 01:49:12
  TRACK 117 AUDIO
    TITLE "0:"
    INDEX 01 01:52:30
  TRACK 118 AUDIO
    TITLE "3:cjc102_0305"
    INDEX 01 01:53:61
  TRACK 119 AUDIO
    TITLE "0:"
    INDEX 01 01:55:01
  TRACK 120 AUDIO
    TITLE "2:cjc102_0306"
    INDEX 01 01:55:63
  TRACK 121 AUDIO
    TITLE "0:"
    INDEX 01 02:01:25
